# xmcd
#
# Track frame offsets: 
#        150
#        19496
#        35837
#        45207
#
# Disc length: 727 seconds
#
# Revision: 0
# Processed by: cddbd v1.5.2PL0 Copyright (c) Steve Scherf et al.
# Submitted via: ExactAudioCopyFreeDBPlugin 1.0
#
DISCID=2c02d504
DTITLE=Purple software / みはる -あると アナザーストーリー- SOUND DISC
DYEAR=2006
DGENRE=Game
TTITLE0=橋本みゆき / 永遠に咲く花
TTITLE1=永遠に咲く花 (ピアノアレンジ)
TTITLE2=いつだって真剣勝負 (ピアノアレンジ)
TTITLE3=森に踊る小妖精
EXTD=
EXTT0=
EXTT1=
EXTT2=
EXTT3=
PLAYORDER=
